<svg width="60" height="34" viewBox="0 0 60 34" fill="none" xmlns="http://www.w3.org/2000/svg">
<path d="M16.6719 2.65625C16.6719 3.17708 16.4635 3.65625 16.0469 4.09375C15.651 4.51042 15.1615 4.88542 14.5781 5.21875C14.0156 5.53125 13.4323 5.79167 12.8281 6C12.224 6.20833 11.724 6.35417 11.3281 6.4375C11.1615 8.04167 11.026 9.64583 10.9219 11.25C10.8385 12.8333 10.7969 14.4271 10.7969 16.0312C10.7969 16.8854 10.8177 17.7292 10.8594 18.5625C10.901 19.3958 10.9219 20.2292 10.9219 21.0625C10.9219 21.4375 10.8802 21.8542 10.7969 22.3125C10.7344 22.75 10.6094 23.1667 10.4219 23.5625C10.2552 23.9583 10.0156 24.2917 9.70312 24.5625C9.39062 24.8333 9.00521 24.9688 8.54688 24.9688C8.00521 24.9688 7.56771 24.8125 7.23438 24.5C6.92188 24.2083 6.67188 23.8438 6.48438 23.4062C6.31771 22.9688 6.20312 22.5104 6.14062 22.0312C6.07812 21.5312 6.04688 21.0833 6.04688 20.6875C6.00521 19.4375 5.97396 18.1875 5.95312 16.9375C5.93229 15.6667 5.92188 14.3958 5.92188 13.125C5.92188 12.0625 5.92188 11.0208 5.92188 10C5.94271 8.97917 5.95312 7.9375 5.95312 6.875C5.66146 6.91667 5.35938 6.94792 5.04688 6.96875C4.75521 6.98958 4.45312 7 4.14062 7C3.89062 7 3.55729 6.97917 3.14062 6.9375C2.74479 6.875 2.35938 6.78125 1.98438 6.65625C1.60938 6.51042 1.28646 6.32292 1.01562 6.09375C0.744792 5.84375 0.609375 5.53125 0.609375 5.15625C0.609375 4.53125 0.859375 3.98958 1.35938 3.53125C1.83854 3.05208 2.45312 2.64583 3.20312 2.3125C3.97396 1.95833 4.81771 1.66667 5.73438 1.4375C6.67188 1.1875 7.58854 1 8.48438 0.875C9.40104 0.729167 10.2344 0.625 10.9844 0.5625C11.7552 0.5 12.349 0.46875 12.7656 0.46875C13.1615 0.46875 13.5781 0.489583 14.0156 0.53125C14.474 0.552083 14.901 0.635417 15.2969 0.78125C15.6927 0.927083 16.0156 1.14583 16.2656 1.4375C16.5365 1.72917 16.6719 2.13542 16.6719 2.65625ZM28.3281 19.5938C28.3281 19.9688 28.3073 20.4583 28.2656 21.0625C28.2448 21.6667 28.1615 22.2604 28.0156 22.8438C27.8698 23.4062 27.6406 23.8958 27.3281 24.3125C27.0156 24.7292 26.5781 24.9375 26.0156 24.9375C25.2448 24.9375 24.651 24.6875 24.2344 24.1875C23.8177 23.6875 23.6198 23.0625 23.6406 22.3125C22.974 22.8958 22.2135 23.3542 21.3594 23.6875C20.526 24.0208 19.6719 24.1875 18.7969 24.1875C18.1927 24.1875 17.6198 24.0417 17.0781 23.75C16.5365 23.4583 16.0573 23.0833 15.6406 22.625C15.224 22.1667 14.8906 21.6562 14.6406 21.0938C14.3906 20.5104 14.2656 19.9375 14.2656 19.375C14.2656 18.375 14.5677 17.5 15.1719 16.75C15.7969 16 16.5573 15.3646 17.4531 14.8438C18.349 14.3021 19.2969 13.875 20.2969 13.5625C21.3177 13.25 22.224 13.0417 23.0156 12.9375C23.0156 12.8333 23.0156 12.7396 23.0156 12.6562C23.0365 12.5729 23.0469 12.4792 23.0469 12.375C23.0469 11.7292 22.8698 11.2083 22.5156 10.8125C22.1615 10.4167 21.6615 10.2188 21.0156 10.2188C20.4948 10.2188 20.0469 10.3125 19.6719 10.5C19.2969 10.6667 18.9427 10.8646 18.6094 11.0938C18.276 11.3021 17.9427 11.5 17.6094 11.6875C17.276 11.8542 16.901 11.9375 16.4844 11.9375C16.026 11.9375 15.6302 11.7917 15.2969 11.5C14.9844 11.2083 14.8281 10.8333 14.8281 10.375C14.8281 9.6875 15.026 9.0625 15.4219 8.5C15.8385 7.9375 16.349 7.46875 16.9531 7.09375C17.5781 6.69792 18.2448 6.39583 18.9531 6.1875C19.6823 5.95833 20.349 5.84375 20.9531 5.84375C21.5156 5.84375 22.0781 5.91667 22.6406 6.0625C23.2031 6.1875 23.7344 6.39583 24.2344 6.6875C24.7344 6.95833 25.1823 7.30208 25.5781 7.71875C25.9948 8.11458 26.3281 8.58333 26.5781 9.125C26.9531 9.89583 27.2552 10.7188 27.4844 11.5938C27.7135 12.4479 27.8906 13.3333 28.0156 14.25C28.1406 15.1458 28.224 16.0521 28.2656 16.9688C28.3073 17.8646 28.3281 18.7396 28.3281 19.5938ZM23.3281 18.5938L23.2344 16.4688C23.1927 16.4688 23.151 16.4688 23.1094 16.4688C23.0677 16.4479 23.026 16.4375 22.9844 16.4375C22.7135 16.4375 22.3698 16.5104 21.9531 16.6562C21.5573 16.7812 21.1719 16.9688 20.7969 17.2188C20.4219 17.4479 20.099 17.7083 19.8281 18C19.5781 18.2917 19.4531 18.5938 19.4531 18.9062C19.4531 19.1979 19.5573 19.3958 19.7656 19.5C19.974 19.6042 20.2135 19.6562 20.4844 19.6562C20.9427 19.6562 21.4323 19.5417 21.9531 19.3125C22.474 19.0625 22.9323 18.8229 23.3281 18.5938ZM44.0781 7.1875C44.0781 7.77083 43.9219 8.36458 43.6094 8.96875C43.3177 9.57292 42.9531 10.1771 42.5156 10.7812C42.099 11.3646 41.651 11.9271 41.1719 12.4688C40.7135 12.9896 40.3073 13.4688 39.9531 13.9062C40.2448 14.3646 40.6094 14.9792 41.0469 15.75C41.4844 16.5 41.901 17.3021 42.2969 18.1562C42.6927 19.0104 43.026 19.8438 43.2969 20.6562C43.5885 21.4688 43.7344 22.1458 43.7344 22.6875C43.7344 23.125 43.599 23.5312 43.3281 23.9062C43.0573 24.2604 42.6823 24.4375 42.2031 24.4375C41.849 24.4375 41.4844 24.2917 41.1094 24C40.7552 23.6875 40.3906 23.2917 40.0156 22.8125C39.6615 22.3125 39.3177 21.7604 38.9844 21.1562C38.651 20.5521 38.3385 19.9583 38.0469 19.375C37.776 18.7917 37.526 18.25 37.2969 17.75C37.0885 17.2292 36.9219 16.8125 36.7969 16.5C36.526 16.7708 36.2344 17 35.9219 17.1875C35.6302 17.3542 35.3385 17.5521 35.0469 17.7812C35.0469 18.2188 35.026 18.8333 34.9844 19.625C34.9635 20.4167 34.8698 21.1979 34.7031 21.9688C34.5573 22.7396 34.3073 23.4167 33.9531 24C33.599 24.5625 33.0781 24.8438 32.3906 24.8438C31.849 24.8438 31.4323 24.5938 31.1406 24.0938C30.849 23.6146 30.6302 23.0521 30.4844 22.4062C30.3594 21.7396 30.2865 21.0729 30.2656 20.4062C30.2448 19.7188 30.2344 19.1979 30.2344 18.8438C30.2344 17.3021 30.276 15.7604 30.3594 14.2188C30.4427 12.6771 30.4948 11.1354 30.5156 9.59375C30.5156 9.23958 30.5156 8.78125 30.5156 8.21875C30.5365 7.63542 30.5781 7.01042 30.6406 6.34375C30.7031 5.67708 30.7969 5 30.9219 4.3125C31.0469 3.625 31.224 3.01042 31.4531 2.46875C31.6823 1.90625 31.974 1.45833 32.3281 1.125C32.7031 0.770833 33.151 0.59375 33.6719 0.59375C34.0469 0.59375 34.3594 0.739583 34.6094 1.03125C34.8802 1.30208 35.0885 1.65625 35.2344 2.09375C35.401 2.53125 35.5156 3.02083 35.5781 3.5625C35.6615 4.10417 35.7135 4.64583 35.7344 5.1875C35.776 5.70833 35.7969 6.19792 35.7969 6.65625C35.7969 7.11458 35.7969 7.47917 35.7969 7.75C35.7969 7.9375 35.7865 8.21875 35.7656 8.59375C35.7656 8.94792 35.7552 9.32292 35.7344 9.71875C35.7344 10.1146 35.7344 10.4792 35.7344 10.8125C35.7344 11.1458 35.7552 11.3854 35.7969 11.5312C35.9427 11.5312 36.1615 11.3958 36.4531 11.125C36.7448 10.8333 37.0781 10.4688 37.4531 10.0312C37.849 9.59375 38.2656 9.13542 38.7031 8.65625C39.1615 8.15625 39.6198 7.6875 40.0781 7.25C40.5573 6.8125 41.026 6.45833 41.4844 6.1875C41.9427 5.89583 42.3698 5.75 42.7656 5.75C43.1823 5.75 43.5052 5.89583 43.7344 6.1875C43.9635 6.47917 44.0781 6.8125 44.0781 7.1875ZM51.9531 33.0938C51.4531 33.0938 50.8802 33.0104 50.2344 32.8438C49.6094 32.6979 49.0156 32.4792 48.4531 32.1875C47.8906 31.8958 47.4115 31.5417 47.0156 31.125C46.6406 30.7083 46.4531 30.2292 46.4531 29.6875C46.4531 29.4792 46.5052 29.2708 46.6094 29.0625C46.7135 28.8542 46.849 28.6667 47.0156 28.5C47.2031 28.3542 47.401 28.2292 47.6094 28.125C47.8177 28.0417 48.0365 28 48.2656 28C48.5156 28 48.7552 28.0312 48.9844 28.0938C49.2344 28.1771 49.4844 28.2708 49.7344 28.375C50.0052 28.4792 50.2656 28.5729 50.5156 28.6562C50.7865 28.7396 51.0677 28.7812 51.3594 28.7812C51.8802 28.7812 52.3281 28.6042 52.7031 28.25C53.099 27.8958 53.4323 27.4271 53.7031 26.8438C53.974 26.2812 54.1927 25.6458 54.3594 24.9375C54.526 24.25 54.651 23.5625 54.7344 22.875C54.8385 22.1875 54.9115 21.5417 54.9531 20.9375C54.9948 20.3333 55.026 19.8438 55.0469 19.4688C54.3177 20.5729 53.5885 21.4271 52.8594 22.0312C52.151 22.6146 51.276 22.9062 50.2344 22.9062C49.4427 22.9062 48.7448 22.7396 48.1406 22.4062C47.5573 22.0729 47.0573 21.6354 46.6406 21.0938C46.224 20.5521 45.8802 19.9375 45.6094 19.25C45.3385 18.5417 45.1302 17.8125 44.9844 17.0625C44.8594 16.3125 44.776 15.5833 44.7344 14.875C44.6927 14.1458 44.6927 13.4792 44.7344 12.875C44.7552 12.4167 44.8073 11.8229 44.8906 11.0938C44.9948 10.3438 45.151 9.61458 45.3594 8.90625C45.5677 8.19792 45.8594 7.60417 46.2344 7.125C46.6094 6.625 47.099 6.39583 47.7031 6.4375C48.099 6.45833 48.4219 6.63542 48.6719 6.96875C48.9219 7.28125 49.1198 7.67708 49.2656 8.15625C49.4323 8.63542 49.5469 9.16667 49.6094 9.75C49.6927 10.3125 49.7448 10.875 49.7656 11.4375C49.7865 12 49.7865 12.5208 49.7656 13C49.7656 13.4583 49.7656 13.8125 49.7656 14.0625C49.7656 14.4167 49.776 14.7708 49.7969 15.125C49.8177 15.4792 49.8906 15.8021 50.0156 16.0938C50.1406 16.3646 50.3281 16.5833 50.5781 16.75C50.849 16.9167 51.224 17 51.7031 17C52.2448 17 52.6719 16.8646 52.9844 16.5938C53.3177 16.3229 53.5573 15.9896 53.7031 15.5938C53.8698 15.1771 53.974 14.7396 54.0156 14.2812C54.0573 13.8021 54.0781 13.3542 54.0781 12.9375C54.0781 12.6458 54.0781 12.2917 54.0781 11.875C54.0781 11.4583 54.0781 11.0208 54.0781 10.5625C54.099 10.1042 54.1406 9.65625 54.2031 9.21875C54.2865 8.76042 54.401 8.35417 54.5469 8C54.7135 7.625 54.9219 7.32292 55.1719 7.09375C55.4427 6.86458 55.7865 6.75 56.2031 6.75C56.724 6.75 57.1719 6.95833 57.5469 7.375C57.9219 7.77083 58.2344 8.30208 58.4844 8.96875C58.7552 9.61458 58.9635 10.3333 59.1094 11.125C59.276 11.9167 59.401 12.7083 59.4844 13.5C59.5677 14.2708 59.6198 14.9896 59.6406 15.6562C59.6823 16.3021 59.7031 16.8125 59.7031 17.1875C59.7031 18.0625 59.6719 19.0625 59.6094 20.1875C59.5469 21.2917 59.4219 22.4375 59.2344 23.625C59.0677 24.7917 58.8073 25.9375 58.4531 27.0625C58.099 28.2083 57.6302 29.2292 57.0469 30.125C56.4844 31.0208 55.7865 31.7396 54.9531 32.2812C54.1198 32.8229 53.1198 33.0938 51.9531 33.0938Z" fill="white"/>
</svg>
